<mxfile host="app.diagrams.net" agent="Mozilla/5.0 (Macintosh; Intel Mac OS X 10_15_7) AppleWebKit/537.36 (KHTML, like Gecko) Chrome/133.0.0.0 Safari/537.36" version="26.0.6">
  <diagram name="第 1 页" id="LGupBHaP4Jmp5hPI-oqI">
    <mxGraphModel dx="1434" dy="654" grid="1" gridSize="10" guides="1" tooltips="1" connect="1" arrows="1" fold="1" page="1" pageScale="1" pageWidth="827" pageHeight="1169" math="0" shadow="0">
      <root>
        <mxCell id="0" />
        <mxCell id="1" parent="0" />
        <mxCell id="uxW33RcxvCTVdDto4gNg-5" style="edgeStyle=orthogonalEdgeStyle;rounded=0;orthogonalLoop=1;jettySize=auto;html=1;exitX=1;exitY=0.5;exitDx=0;exitDy=0;entryX=0;entryY=0.5;entryDx=0;entryDy=0;" edge="1" parent="1" source="uxW33RcxvCTVdDto4gNg-1" target="uxW33RcxvCTVdDto4gNg-2">
          <mxGeometry relative="1" as="geometry" />
        </mxCell>
        <mxCell id="uxW33RcxvCTVdDto4gNg-8" value="Upload" style="edgeLabel;html=1;align=center;verticalAlign=middle;resizable=0;points=[];" vertex="1" connectable="0" parent="uxW33RcxvCTVdDto4gNg-5">
          <mxGeometry x="-0.15" y="3" relative="1" as="geometry">
            <mxPoint as="offset" />
          </mxGeometry>
        </mxCell>
        <mxCell id="uxW33RcxvCTVdDto4gNg-1" value="botify csv data" style="rounded=1;whiteSpace=wrap;html=1;" vertex="1" parent="1">
          <mxGeometry x="40" y="80" width="120" height="40" as="geometry" />
        </mxCell>
        <mxCell id="uxW33RcxvCTVdDto4gNg-6" style="edgeStyle=orthogonalEdgeStyle;rounded=0;orthogonalLoop=1;jettySize=auto;html=1;exitX=0.5;exitY=1;exitDx=0;exitDy=0;entryX=0.5;entryY=0;entryDx=0;entryDy=0;" edge="1" parent="1" source="uxW33RcxvCTVdDto4gNg-2" target="uxW33RcxvCTVdDto4gNg-4">
          <mxGeometry relative="1" as="geometry" />
        </mxCell>
        <mxCell id="uxW33RcxvCTVdDto4gNg-9" value="merge" style="edgeLabel;html=1;align=center;verticalAlign=middle;resizable=0;points=[];" vertex="1" connectable="0" parent="uxW33RcxvCTVdDto4gNg-6">
          <mxGeometry x="0.2727" y="2" relative="1" as="geometry">
            <mxPoint x="24" y="-6" as="offset" />
          </mxGeometry>
        </mxCell>
        <mxCell id="uxW33RcxvCTVdDto4gNg-2" value="ODPS(pdp_crawl)" style="rounded=1;whiteSpace=wrap;html=1;" vertex="1" parent="1">
          <mxGeometry x="240" y="80" width="120" height="40" as="geometry" />
        </mxCell>
        <mxCell id="uxW33RcxvCTVdDto4gNg-7" style="edgeStyle=orthogonalEdgeStyle;rounded=0;orthogonalLoop=1;jettySize=auto;html=1;exitX=0.5;exitY=1;exitDx=0;exitDy=0;entryX=0.5;entryY=0;entryDx=0;entryDy=0;" edge="1" parent="1" source="uxW33RcxvCTVdDto4gNg-3" target="uxW33RcxvCTVdDto4gNg-4">
          <mxGeometry relative="1" as="geometry" />
        </mxCell>
        <mxCell id="uxW33RcxvCTVdDto4gNg-3" value="ODPS(pdp_sitemap)" style="rounded=1;whiteSpace=wrap;html=1;" vertex="1" parent="1">
          <mxGeometry x="400" y="80" width="120" height="40" as="geometry" />
        </mxCell>
        <mxCell id="uxW33RcxvCTVdDto4gNg-4" value="ODPS&lt;div&gt;(pdp_sitemap_merge)&lt;/div&gt;" style="rounded=1;whiteSpace=wrap;html=1;" vertex="1" parent="1">
          <mxGeometry x="320" y="160" width="120" height="40" as="geometry" />
        </mxCell>
        <mxCell id="uxW33RcxvCTVdDto4gNg-10" style="edgeStyle=orthogonalEdgeStyle;rounded=0;orthogonalLoop=1;jettySize=auto;html=1;exitX=1;exitY=0.5;exitDx=0;exitDy=0;entryX=0;entryY=0.5;entryDx=0;entryDy=0;" edge="1" parent="1" source="uxW33RcxvCTVdDto4gNg-12" target="uxW33RcxvCTVdDto4gNg-15">
          <mxGeometry relative="1" as="geometry" />
        </mxCell>
        <mxCell id="uxW33RcxvCTVdDto4gNg-11" value="v-seo&lt;div&gt;download&lt;/div&gt;" style="edgeLabel;html=1;align=center;verticalAlign=middle;resizable=0;points=[];" vertex="1" connectable="0" parent="uxW33RcxvCTVdDto4gNg-10">
          <mxGeometry x="-0.15" y="3" relative="1" as="geometry">
            <mxPoint as="offset" />
          </mxGeometry>
        </mxCell>
        <mxCell id="uxW33RcxvCTVdDto4gNg-12" value="s3 datadog file" style="rounded=1;whiteSpace=wrap;html=1;" vertex="1" parent="1">
          <mxGeometry x="40" y="240" width="120" height="40" as="geometry" />
        </mxCell>
        <mxCell id="uxW33RcxvCTVdDto4gNg-22" value="sync" style="edgeStyle=orthogonalEdgeStyle;rounded=0;orthogonalLoop=1;jettySize=auto;html=1;exitX=0.5;exitY=1;exitDx=0;exitDy=0;entryX=0.5;entryY=0;entryDx=0;entryDy=0;" edge="1" parent="1" source="uxW33RcxvCTVdDto4gNg-15" target="uxW33RcxvCTVdDto4gNg-21">
          <mxGeometry relative="1" as="geometry" />
        </mxCell>
        <mxCell id="uxW33RcxvCTVdDto4gNg-15" value="MySQL" style="rounded=1;whiteSpace=wrap;html=1;" vertex="1" parent="1">
          <mxGeometry x="240" y="240" width="120" height="40" as="geometry" />
        </mxCell>
        <mxCell id="uxW33RcxvCTVdDto4gNg-16" style="edgeStyle=orthogonalEdgeStyle;rounded=0;orthogonalLoop=1;jettySize=auto;html=1;exitX=0.5;exitY=1;exitDx=0;exitDy=0;entryX=0.5;entryY=0;entryDx=0;entryDy=0;" edge="1" parent="1" source="uxW33RcxvCTVdDto4gNg-17" target="uxW33RcxvCTVdDto4gNg-18">
          <mxGeometry relative="1" as="geometry" />
        </mxCell>
        <mxCell id="uxW33RcxvCTVdDto4gNg-17" value="ODPS(pdp_sitemap)" style="rounded=1;whiteSpace=wrap;html=1;" vertex="1" parent="1">
          <mxGeometry x="400" y="320" width="120" height="40" as="geometry" />
        </mxCell>
        <mxCell id="uxW33RcxvCTVdDto4gNg-18" value="ODPS&lt;div&gt;(pdp_sitemap_merge)&lt;/div&gt;" style="rounded=1;whiteSpace=wrap;html=1;" vertex="1" parent="1">
          <mxGeometry x="320" y="400" width="120" height="40" as="geometry" />
        </mxCell>
        <mxCell id="uxW33RcxvCTVdDto4gNg-19" value="Now" style="text;html=1;align=center;verticalAlign=middle;resizable=0;points=[];autosize=1;strokeColor=none;fillColor=none;" vertex="1" parent="1">
          <mxGeometry x="40" y="40" width="50" height="30" as="geometry" />
        </mxCell>
        <mxCell id="uxW33RcxvCTVdDto4gNg-20" value="Future" style="text;html=1;align=center;verticalAlign=middle;resizable=0;points=[];autosize=1;strokeColor=none;fillColor=none;" vertex="1" parent="1">
          <mxGeometry x="35" y="200" width="60" height="30" as="geometry" />
        </mxCell>
        <mxCell id="uxW33RcxvCTVdDto4gNg-23" style="edgeStyle=orthogonalEdgeStyle;rounded=0;orthogonalLoop=1;jettySize=auto;html=1;exitX=0.5;exitY=1;exitDx=0;exitDy=0;entryX=0.5;entryY=0;entryDx=0;entryDy=0;" edge="1" parent="1" source="uxW33RcxvCTVdDto4gNg-21" target="uxW33RcxvCTVdDto4gNg-18">
          <mxGeometry relative="1" as="geometry" />
        </mxCell>
        <mxCell id="uxW33RcxvCTVdDto4gNg-24" value="merge" style="edgeLabel;html=1;align=center;verticalAlign=middle;resizable=0;points=[];" vertex="1" connectable="0" parent="uxW33RcxvCTVdDto4gNg-23">
          <mxGeometry x="0.4667" y="4" relative="1" as="geometry">
            <mxPoint x="12" y="-4" as="offset" />
          </mxGeometry>
        </mxCell>
        <mxCell id="uxW33RcxvCTVdDto4gNg-21" value="ODPS(url_crawl)" style="rounded=1;whiteSpace=wrap;html=1;" vertex="1" parent="1">
          <mxGeometry x="240" y="320" width="120" height="40" as="geometry" />
        </mxCell>
      </root>
    </mxGraphModel>
  </diagram>
</mxfile>
